<?xml version="1.0" encoding="utf-8"?>
<!-- Generator: Adobe Illustrator 26.1.0, SVG Export Plug-In . SVG Version: 6.00 Build 0)  -->
<svg version="1.1" xmlns="http://www.w3.org/2000/svg" xmlns:xlink="http://www.w3.org/1999/xlink" x="0px" y="0px"
	 viewBox="0 0 417.06 95.36" style="enable-background:new 0 0 417.06 95.36;" xml:space="preserve">
<style type="text/css">
	.st0{fill:#778A35;}
</style>
<g id="Lager_1">
	<path d="M46.92,43.9c-2.06,5.9-4.91,10.88-11.28,13.07c-2.19,4.64-6.5,8.29-11.87,8.09c-6.63-0.33-6.63-9.09,0.86-8.82
		c1.79,0.07,3.52,0.13,5.24,0.07c2.72-7.89,2.45-20.16-1.99-19.97c-7.69,0.27-10.94,23.15-12.4,37.28c-0.27,3.98-0.6,8.03-0.93,12.2
		c-0.2,2.79-4.64,3.78-4.58,0.93c0.46-17.11,0.46-30.91,0.73-47.96c0.07-3.45,6.04-1.59,6.04,0.6c0,6.1-0.13,9.15-0.33,14.99
		c1.33-6.37,4.38-19.97,12.93-19.9c2.19,0.07,4.31,1.13,6.1,3.58c2.85,4.05,2.92,10.94,1.06,16.65c4.97-2.32,7.1-6.57,8.82-11.41
		L46.92,43.9z M29.21,58.1c-1.53,0-3.12,0-4.64-0.07c-5.37-0.27-4.64,4.97-1.39,5.11C26.22,63.27,28.15,60.55,29.21,58.1z"/>
	<path d="M68.81,43.9c-2.32,6.83-9.88,24.81-15.72,24.81c-4.78,0-6.7-4.84-7.36-9.68c-2.06-14.26-0.4-53.33,15.52-52.67
		c1.79,0.07,3.45,0.8,4.58,2.19c1.06,1.26,1.66,2.98,1.66,5.17c0.07,4.11-2.59,9.82-6.1,14.73c-2.92,4.11-6.5,7.76-9.75,9.75
		c-0.46,8.09-0.53,15.92-0.46,20.89c0.07,4.05,0.46,7.89,1.92,7.89c4.84,0,12.34-18.57,14.13-23.68L68.81,43.9z M51.77,36.07
		c2.72-1.99,5.7-5.11,8.22-8.62c3.32-4.71,5.77-9.95,5.77-13.73c0-1.79-0.46-3.12-1.26-4.05c-0.86-0.99-2.06-1.53-3.38-1.59
		C55.15,7.82,52.7,21.88,51.77,36.07z"/>
	<path d="M104.24,43.9c-1.79,5.24-8.29,24.01-14.79,23.81c-5.97-0.13-7.3-7.89-7.16-15.99c-1.92,5.04-4.84,9.68-8.22,9.62
		c-12.93-0.07-10.61-26.66,5.31-26.73c2.12,0,3.65,0.8,4.58,2.12l0.33-1.92c0.27-1.39,6.83-1.66,6.37,0.6
		c-1.26,6.17-5.97,30.45-1.13,30.58c5.24,0.13,11.54-18.24,13.07-22.68L104.24,43.9z M83.14,42.04l0.2-1.72
		c-0.13-1.86-0.99-3.85-3.12-3.91c-7.96-0.33-11.47,22.42-5.51,23.22C78.37,59.62,82.21,47.48,83.14,42.04z"/>
	<path d="M138.6,44.1c-1.39,4.38-4.71,13.6-8.16,20.16c-1.46,2.85-4.11,8.03-7.76,8.09c-12.47,0.2,2.12-34.23-2.98-34.23
		c-4.38-0.07-9.68,20.63-11.54,25.54c-0.46,2.06-6.3,5.04-6.17-5.51c0.07-4.71-0.33-9.42,0.33-14.13c0.53-3.65,6.96-4.05,6.23,0.07
		c-0.73,4.71-0.53,9.35-0.46,14.06c2.65-8.49,6.83-22.09,12.47-22.09c12.6,0.73-2.26,34.36,2.85,34.36c1.92,0,4.71-5.44,5.51-6.96
		c3.38-6.5,6.63-15.52,7.96-19.9L138.6,44.1z"/>
	<path d="M144.31,20.55l2.39,0.2c16.91,1.39,33.63,2.72,35.88-6.1c0.27-0.99,1.99-0.8,1.72,0.4c-2.59,10.28-20.03,8.89-37.74,7.43
		l-2.45-0.2c-1.72,16.71-4.71,46.5,2.26,46.5c6.1,0,10.15-17.25,11.74-24.08l0.46-1.86l1.66,0.4l-0.4,1.86
		c-1.72,7.16-5.97,25.4-13.46,25.4c-12.4,0-9.95-31.37-8.36-48.69c-12.6-0.8-24.01-0.66-27.73,5.04c-0.6,0.93-2.19,0.2-1.59-0.8
		c4.11-6.63,16.18-6.83,29.52-5.97c0.2-2.59,0.46-4.78,0.6-6.43c0.2-3.32,6.37-2.32,6.1,0.46L144.31,20.55z"/>
	<path class="st0" d="M170.32,35.81c-0.46-1.53-1.79-2.26-3.32-2.26c-3.38-0.13-5.97,1.79-5.84,5.44c0.2,6.57,9.02,7.89,13.33,14.33
		c3.18-2.45,12.27-4.07,13.93-8.91l0.97-0.81c-1.86,5.24-10.32,8.47-14.04,11.25c0.99,1.99,1.53,4.38,1.46,7.5
		c-0.27,6.57-4.25,13-12.01,13.4c-3.98,0.13-7.03-2.79-7.1-6.83c-0.13-5.77,5.77-8.82,10.08-11.34l1.53-0.86
		c-4.05-5.7-11.81-8.49-11.47-16.52c0.27-5.04,4.18-8.42,9.15-8.42c2.32,0.07,4.31,1.26,4.97,3.58c0.46,1.66,0.13,3.71-1.19,4.97
		c-0.46,0.46-1.66-0.6-0.99-1.46C170.45,38.06,170.58,36.8,170.32,35.81z M171.71,64.73c0.13-2.65-0.46-4.78-1.46-6.57
		c-0.53,0.27-0.99,0.6-1.53,0.93c-3.58,2.06-9.15,4.91-9.29,9.62c-0.07,3.05,2.26,5.44,5.31,5.31
		C169.06,73.82,171.51,69.44,171.71,64.73z"/>
	<path d="M175.36,54.84c0.99,1.99,1.53,4.38,1.46,7.5c-0.27,6.57-4.25,13-12.01,13.4c-3.98,0.13-7.03-2.79-7.1-6.83
		c-0.13-5.77,5.77-8.82,10.08-11.34l1.53-0.86c-4.05-5.7-11.81-8.49-11.47-16.52c0.27-5.04,4.18-8.42,9.15-8.42
		c2.32,0.07,4.31,1.26,4.97,3.58c0.46,1.66,0.13,3.71-1.19,4.97c-0.46,0.46-1.66-0.6-0.99-1.46c0.66-0.8,0.8-2.06,0.53-3.05
		c-0.46-1.53-1.79-2.26-3.32-2.26c-3.38-0.13-5.97,1.79-5.84,5.44c0.2,6.57,9.02,7.89,13.33,14.33 M189.4,43.59 M171.71,64.73
		c0.13-2.65-0.46-4.78-1.46-6.57c-0.53,0.27-0.99,0.6-1.53,0.93c-3.58,2.06-9.15,4.91-9.29,9.62c-0.07,3.05,2.26,5.44,5.31,5.31
		C169.06,73.82,171.51,69.44,171.71,64.73z"/>
	<g>
		<path class="st0" d="M188.42,44.41c0.1-7.44-0.65-27.15,8.35-26.76c0.94,0.03,1.81,0.42,2.4,1.15c0.56,0.66,0.9,1.56,0.9,2.71
			c0,2.15-1.35,5.14-3.23,7.72c-1.49,2.15-3.37,4.03-5.07,5.11L191.21,38c0.97-2.95,3.16-4.75,5.94-4.75c4.87,0,5.66,5.7,4,10.84
			c2.95-1.25,4.69-3.06,6.08-7.09l0.83,0.31c-1.53,4.45-3.41,6.43-7.33,7.92c-1.53,3.79-4.34,6.99-7.79,6.99
			c-1.35,0-2.57-0.83-2.64-2.26c-0.03-1.56,1.29-2.64,2.61-3.2c1.43-0.59,2.88-0.97,4.27-1.36l0.52-0.14
			c1.46-4.93,1.46-11.09-0.73-11.12c-3.51-0.04-6.49,6.42-7.59,9.44 M197.36,46.32c-1.36,0.35-2.75,0.73-4.1,1.32
			c-0.94,0.35-2.09,1.18-2.05,2.29c0.03,0.94,0.9,1.39,1.74,1.39C194.83,51.32,196.36,49.13,197.36,46.32z M191.84,33.18
			c1.43-1.01,2.99-2.64,4.28-4.48c1.74-2.47,3.06-5.21,3.06-7.19c-0.04-0.94-0.28-1.63-0.7-2.12c-0.42-0.52-1.04-0.8-1.74-0.83
			C193.26,18.41,192.19,25.88,191.84,33.18z"/>
		<path class="st0" d="M230.38,42.53c-1.18,3.37-9.65-2.35-12.98-0.16c-0.42,8.13-2.05,16.96-7.99,16.75
			c-0.94-0.04-1.81-0.42-2.43-1.15c-0.56-0.66-0.87-1.56-0.9-2.71c-0.03-4.9,4.55-9.52,8.24-11.96c0.17-2.61,0.14-5.42,0.1-8.24
			c-0.87,4.21-2.09,9.8-4.52,9.77c-5.77-0.17-4.38-10.74-3.79-14.01c0.14-0.73,3.58-0.87,3.34,0.31
			c-0.66,3.23-2.05,12.72,0.45,12.76c2.75,0.07,3.72-10.39,4.52-12.93c0.17-1.01,3.16-0.59,3.16,0.73c-0.03,2.29,0.04,5.8-0.1,9.52
			c2.82-1.91,11.04,3.88,12.04,0.99L230.38,42.53z M214.2,44.46c-3.2,2.19-7.23,6.53-7.19,10.81c0,0.9,0.24,1.63,0.66,2.12
			c0.45,0.52,1.08,0.8,1.77,0.83C212.74,58.33,213.85,51.48,214.2,44.46z"/>
	</g>
	<g>
		<path d="M264.64,43.17c-1.39,4.38-4.71,13.6-8.16,20.16c-1.46,2.85-4.11,8.03-7.76,8.09c-12.47,0.2,2.12-34.23-2.98-34.23
			c-4.38-0.07-9.68,20.63-11.54,25.54c-0.46,2.06-6.3,5.04-6.17-5.51c0.07-4.71-0.33-9.42,0.33-14.13c0.53-3.65,6.96-4.05,6.23,0.07
			c-0.73,4.71-0.53,9.35-0.46,14.06c2.65-8.49,6.83-22.09,12.47-22.09c12.6,0.73-2.26,34.36,2.85,34.36c1.92,0,4.71-5.44,5.51-6.96
			c3.38-6.5,6.63-15.52,7.96-19.9L264.64,43.17z"/>
		<path d="M300,42.97c-1.79,5.24-8.29,24.01-14.79,23.81c-5.97-0.13-7.3-7.89-7.16-15.99c-1.92,5.04-4.84,9.68-8.22,9.62
			c-12.93-0.07-10.61-26.66,5.31-26.73c2.12,0,3.65,0.8,4.58,2.12l0.33-1.92c0.27-1.39,6.83-1.66,6.37,0.6
			c-1.26,6.17-5.97,30.45-1.13,30.58c5.24,0.13,11.54-18.24,13.07-22.68L300,42.97z M278.91,41.11l0.2-1.72
			c-0.13-1.86-0.99-3.85-3.12-3.91c-7.96-0.33-11.47,22.42-5.51,23.22C274.13,58.69,277.98,46.55,278.91,41.11z"/>
		<path d="M305.71,19.62l2.39,0.2c16.91,1.39,33.63,2.72,35.88-6.1c0.27-0.99,1.99-0.8,1.72,0.4c-2.59,10.28-20.03,8.89-37.74,7.43
			l-2.45-0.2c-1.72,16.71-4.71,46.5,2.26,46.5c6.1,0,10.15-17.25,11.74-24.08l0.46-1.86l1.66,0.4l-0.4,1.86
			c-1.72,7.16-5.97,25.4-13.46,25.4c-12.4,0-9.95-31.37-8.36-48.69c-12.6-0.8-24.01-0.66-27.73,5.04c-0.6,0.93-2.19,0.2-1.59-0.8
			c4.11-6.63,16.18-6.83,29.52-5.97c0.2-2.59,0.46-4.78,0.6-6.43c0.2-3.32,6.37-2.32,6.1,0.46L305.71,19.62z"/>
		<path d="M344.45,65.06c5.31,0.13,11.54-18.24,13.07-22.68l1.66,0.6c-1.79,5.24-8.29,24.01-14.79,23.81
			c-7.3-0.2-7.69-11.81-6.77-21.42c-2.65,7.96-6.37,17.25-10.55,17.11c-11.01-0.27-7.23-22.35-6.04-28.59
			c0.27-1.39,6.83-1.66,6.3,0.6c-1.26,6.17-5.04,26.13-0.2,26.27c5.24,0.13,10.48-21.89,12.01-26.33l0.13-0.53
			c0.2-1.39,6.77-1.66,6.3,0.6C344.32,40.65,339.61,64.93,344.45,65.06z"/>
		<path d="M372.58,68.84c5.24,0.13,11.61-22.02,13.13-26.47l1.66,0.6c-1.86,5.24-8.36,27.79-14.86,27.66
			c-9.68-0.27-6.96-20.5-5.37-29.65c-2.26-0.27-4.64-0.86-6.63-1.86c-0.73,2.19-1.46,4.05-1.72,4.97c-0.53,1.06-2.06,0.46-1.66-0.46
			c0.2-0.8,0.99-2.98,1.86-5.51c-2.12-1.53-3.52-3.91-3.52-7.43c0-3.45,1.86-5.24,3.65-5.24c1.72,0,3.45,1.59,3.32,4.97
			c-0.07,1.79-0.53,3.91-1.13,5.9c2.52,0.8,5.77,0.6,8.36,0.53c2.45-0.07,4.51,0.86,3.78,4.71
			C371.65,50.27,368.33,68.77,372.58,68.84z M360.57,31.56c0.07-3.12-3.32-2.79-3.12,0.13c0.07,1.46,0.93,3.18,2.26,3.98
			C359.91,34.88,360.51,33.02,360.57,31.56z"/>
		<path d="M407.86,47.02c-2.19,6.3-4.56,14-12.19,14c-14.46,0-14.26-27.92,0.66-27.99c2.92,0,5.04,1.59,5.04,4.71
			c-0.07,5.24-5.57,7.96-10.28,7.63c-0.8,6.63,0.53,14,4.71,13.86c6.37-0.13,10.08-11.41,11.94-16.85L407.86,47.02z M399.65,37.67
			c0-1.86-1.26-2.85-2.72-2.79c-2.79,0.07-4.71,4.05-5.57,8.76C395,43.83,399.58,41.84,399.65,37.67z"/>
	</g>
</g>
<g id="Lager_2">
</g>
</svg>
